<svg xmlns="http://www.w3.org/2000/svg" id="Layer_1" data-name="Layer 1" viewBox="0 0 535.12 124"><defs><style>.cls-1{fill:#28246c;}.cls-2{fill:#009ba1;}</style></defs><path class="cls-1" d="M156,33h15.91a26.2,26.2,0,0,1,8.06,1.15,17.37,17.37,0,0,1,6,3.19,16.73,16.73,0,0,1,4,5,24,24,0,0,1,2.3,6.53,40.1,40.1,0,0,1,.71,7.81,40.92,40.92,0,0,1-.68,7.73A24.06,24.06,0,0,1,190,71a17.48,17.48,0,0,1-4,5.12,17,17,0,0,1-6,3.25,26.19,26.19,0,0,1-8.15,1.17H156Zm7.17,6.16V74.4h8.13q7.22,0,10.73-4.36t3.51-13.19a31.27,31.27,0,0,0-.76-7.28A16.33,16.33,0,0,0,182.33,44a10.43,10.43,0,0,0-4.42-3.6,16.23,16.23,0,0,0-6.64-1.24Z" transform="translate(-7.37 -7)"></path><path class="cls-1" d="M208.51,80.56h-7.17V33h7.17Z" transform="translate(-7.37 -7)"></path><path class="cls-1" d="M255,47.76h-7.07a10.06,10.06,0,0,0-3.6-7,11.57,11.57,0,0,0-7.4-2.4,11.23,11.23,0,0,0-8.76,3.78q-3.39,3.78-3.39,11.4v6.34q0,7.24,3.06,11.35t9,4.11A11.93,11.93,0,0,0,245,72.56a9,9,0,0,0,3.16-7.07V61.41H236.68V55.56h18.38v9.68a17.07,17.07,0,0,1-.55,4.27,15.54,15.54,0,0,1-10.55,11,22.76,22.76,0,0,1-7.14,1.06q-9.48,0-14.36-5.81t-4.9-15.88V53.51q0-10,5.26-15.7T237,32.09a21.06,21.06,0,0,1,7.54,1.29,15.38,15.38,0,0,1,5.57,3.5A16.75,16.75,0,0,1,255,47.76Z" transform="translate(-7.37 -7)"></path><path class="cls-1" d="M271.33,80.56h-7.18V33h7.18Z" transform="translate(-7.37 -7)"></path><path class="cls-1" d="M316.1,80.56h-7.9L291.49,33h8.21l12.44,38.79h.27L324.74,33h8Z" transform="translate(-7.37 -7)"></path><path class="cls-1" d="M346.5,80.56h-7.17V33h7.17Z" transform="translate(-7.37 -7)"></path><path class="cls-1" d="M354.06,67.5h7.07a8,8,0,0,0,3.23,5.71,12.49,12.49,0,0,0,7.87,2.27,12.09,12.09,0,0,0,7.49-2.11,6.79,6.79,0,0,0,2.75-5.67,5.78,5.78,0,0,0-1.83-4.46,13.22,13.22,0,0,0-5.79-2.65l-8-2A20.85,20.85,0,0,1,362.53,57a15.83,15.83,0,0,1-3.6-2.46,10,10,0,0,1-2.58-3.69,12.79,12.79,0,0,1-.92-5,12.42,12.42,0,0,1,2.38-7.58A14.48,14.48,0,0,1,364,33.52a23,23,0,0,1,16.56-.05,14.17,14.17,0,0,1,6.13,4.68,12.42,12.42,0,0,1,2.47,7.52H382.2a8,8,0,0,0-2.87-5.54A10.71,10.71,0,0,0,372.21,38a11.33,11.33,0,0,0-6.95,2,6.4,6.4,0,0,0-2.63,5.42q0,5,6.65,6.61l7.94,2a29.27,29.27,0,0,1,4.08,1.29,18.83,18.83,0,0,1,3.43,1.83,11.44,11.44,0,0,1,2.68,2.47,11.17,11.17,0,0,1,1.69,3.27,13.51,13.51,0,0,1,.62,4.23,12.57,12.57,0,0,1-5,10.64q-5,3.81-13.07,3.81a24.87,24.87,0,0,1-6.76-.85,16.19,16.19,0,0,1-5-2.24,14.05,14.05,0,0,1-3.27-3.26,13.42,13.42,0,0,1-1.9-3.78A15.25,15.25,0,0,1,354.06,67.5Z" transform="translate(-7.37 -7)"></path><path class="cls-1" d="M405.45,80.56h-7.18V33h7.17Z" transform="translate(-7.37 -7)"></path><path class="cls-1" d="M414.51,60.36V53.7q0-10.06,5.29-15.85t14.28-5.78q9,0,14.2,5.77t5.23,15.86v6.68q0,10-5.26,15.59t-14.31,5.58q-9,0-14.23-5.58T414.51,60.36Zm7.24-6.75v6.75q0,7.35,3.38,11.15a12.3,12.3,0,0,0,17.39.37c.13-.12.25-.24.37-.37q3.38-3.81,3.38-11.15V53.61q0-7.35-3.39-11.34a11.84,11.84,0,0,0-17.71,0Q421.77,46.26,421.75,53.61Z" transform="translate(-7.37 -7)"></path><path class="cls-1" d="M469.35,80.56h-6.76V33h6.51l23.17,35.31h.21V33h6.79V80.56h-6.52L469.6,45.18h-.21Z" transform="translate(-7.37 -7)"></path><path class="cls-1" d="M506.81,67.5h7.07a8.06,8.06,0,0,0,3.24,5.71A12.49,12.49,0,0,0,525,75.48a12.1,12.1,0,0,0,7.49-2.11,6.82,6.82,0,0,0,2.79-5.67,5.78,5.78,0,0,0-1.83-4.46,13.31,13.31,0,0,0-5.8-2.65l-8-2A20.76,20.76,0,0,1,515.33,57a16.11,16.11,0,0,1-3.61-2.46,10.12,10.12,0,0,1-2.57-3.69,12.79,12.79,0,0,1-.93-5,12.37,12.37,0,0,1,2.39-7.58,14.28,14.28,0,0,1,6.16-4.78,23,23,0,0,1,16.56-.05,14.31,14.31,0,0,1,6.13,4.68,12.42,12.42,0,0,1,2.47,7.52H535a8,8,0,0,0-2.87-5.54A10.71,10.71,0,0,0,525,38a11.33,11.33,0,0,0-7,2,6.4,6.4,0,0,0-2.63,5.42q0,5,6.65,6.61L530,54A28.73,28.73,0,0,1,534,55.29a18.2,18.2,0,0,1,3.43,1.83,11.49,11.49,0,0,1,2.69,2.47,10.91,10.91,0,0,1,1.68,3.27,13.52,13.52,0,0,1,.63,4.23,12.61,12.61,0,0,1-5,10.64c-3.36,2.54-7.71,3.81-13.08,3.81a24.8,24.8,0,0,1-6.75-.85,16.19,16.19,0,0,1-5-2.24,14.05,14.05,0,0,1-3.27-3.26,12.79,12.79,0,0,1-1.9-3.78A15.69,15.69,0,0,1,506.81,67.5Z" transform="translate(-7.37 -7)"></path><path class="cls-2" d="M165.33,98h-6.76V95.53H175V98h-6.78v20.63h-2.9Z" transform="translate(-7.37 -7)"></path><path class="cls-2" d="M191.36,107.75H181v8.44H192.4l-.39,2.44H178.16V95.53h13.69V98H181v7.29h10.39Z" transform="translate(-7.37 -7)"></path><path class="cls-2" d="M213.18,111.91c-.68,3.68-3.09,7.06-8.52,7.06-6.76,0-9.33-5.14-9.33-12,0-6.08,2.94-11.71,9.49-11.71,5.31,0,7.8,3.23,8.25,7.12h-2.88c-.58-2.7-2-4.7-5.47-4.7-4.56,0-6.42,4.42-6.42,9.3s1.48,9.62,6.44,9.62c3.43,0,4.86-2,5.58-4.64Z" transform="translate(-7.37 -7)"></path><path class="cls-2" d="M217.14,95.53H220v9.72h10.79V95.53h2.88v23.1h-2.88v-10.9H220v10.9h-2.86Z" transform="translate(-7.37 -7)"></path><path class="cls-2" d="M239.53,118.63V95.53h3.8c9.21,16.4,10.46,18.61,10.88,19.63h0c-.21-3.08-.24-6.8-.24-10.55V95.53h2.71v23.1H253.2c-9.86-17.76-10.59-19.21-11.08-20.18h0c.17,3,.14,6.86.14,11v9.17Z" transform="translate(-7.37 -7)"></path><path class="cls-2" d="M280.79,106.94c0,6.63-3.09,12-9.85,12-6.39,0-9.6-5.09-9.6-12,0-6,3.14-11.75,9.87-11.75C277.58,95.21,280.79,100.28,280.79,106.94Zm-16.47,0c0,5.43,2.19,9.65,6.77,9.65,4.75,0,6.77-4.16,6.77-9.59,0-5.28-2.07-9.34-6.76-9.34S264.32,101.79,264.32,106.9Z" transform="translate(-7.37 -7)"></path><path class="cls-2" d="M285.4,95.53h2.86v20.66h11.12l-.41,2.44H285.4Z" transform="translate(-7.37 -7)"></path><path class="cls-2" d="M320.2,106.94c0,6.63-3.08,12-9.84,12-6.39,0-9.61-5.09-9.61-12,0-6,3.15-11.75,9.87-11.75C317,95.21,320.2,100.28,320.2,106.94Zm-16.46,0c0,5.43,2.19,9.65,6.77,9.65,4.75,0,6.77-4.16,6.77-9.59,0-5.28-2.08-9.34-6.76-9.34S303.74,101.79,303.74,106.9Z" transform="translate(-7.37 -7)"></path><path class="cls-2" d="M341.88,118.63h-2.23a23.52,23.52,0,0,1-.26-3.33c-1.21,2.64-3.48,3.67-6.77,3.67-6,0-9-5.17-9-11.78s3.48-12,9.94-12c4.9,0,7.66,2.62,8.34,6.69h-2.82a5.27,5.27,0,0,0-5.65-4.27c-4.76,0-6.83,4.24-6.83,9.58,0,5,1.93,9.34,6.49,9.34,4.95,0,5.93-3.43,5.93-7.69v-.14h-6v-2.54h8.82Z" transform="translate(-7.37 -7)"></path><path class="cls-2" d="M349.9,95.53v23.1H347V95.53Z" transform="translate(-7.37 -7)"></path><path class="cls-2" d="M369,107.75H358.58v8.44H370l-.39,2.44H355.77V95.53h13.69V98H358.58v7.29H369Z" transform="translate(-7.37 -7)"></path><path class="cls-2" d="M375.58,112.11a4.86,4.86,0,0,0,5.22,4.44c2.77,0,4.6-1.41,4.6-4s-1.21-3.65-5.26-4.91c-4.84-1.47-6.69-3.08-6.69-6.39,0-3.67,2.77-6,7.07-6,5,0,7.09,2.93,7.33,6.19H385c-.36-2.36-1.71-3.86-4.57-3.86-2.71,0-4.06,1.33-4.06,3.45s1.21,3,4.91,4.14c5.7,1.73,7.08,3.91,7.08,7.09,0,3.85-2.66,6.65-7.7,6.65-4.79,0-7.62-2.57-7.95-6.78Z" transform="translate(-7.37 -7)"></path><path class="cls-2" d="M129,38.93A40.36,40.36,0,0,0,91.92,7H69.72A17.05,17.05,0,0,0,62,8.77a18.81,18.81,0,0,0-10.13,21c.66,3.32,2.66,6.14,4.26,9,5.7,10,11.51,19.86,17.15,29.88,1.55,3.26,4,6.2,5.15,9.63-1.55,2.82-3.1,5.7-4.93,8.4C63.92,71,55,54.81,45.6,38.88a23.34,23.34,0,0,1-3.54-12.51c0-6.58,2.66-12.89,6.31-18.31A25,25,0,0,0,32,39.4l.06.2c1,3.21,2.82,6,4.48,8.85,7,12.29,14.17,24.51,21.25,36.8C60.38,89.46,62.48,93.82,65,98c.61.83,1.22,2.22.23,3-1.61,1.82-4.21,2-6.37,1.44-1.93-.66-3-2.49-4.09-4.1-10.9-19-22-37.95-32.82-57-4.86-.17-9.73-.11-14.6-.06,11.18,19.59,22.46,39,33.69,58.54,2.44,3.81,4.15,8.19,7.7,11.18a18.66,18.66,0,0,0,18.31,3.48,17.83,17.83,0,0,0,9.85-7.86c9.29-16,18.48-32,27.78-48a20.81,20.81,0,0,0,3.37-9,18.67,18.67,0,0,0-16.3-20.78,19,19,0,0,0-2.13-.14c-8.3-.05-16.6,0-24.9-.05a6.33,6.33,0,0,1,6.09-9.18c6.25,0,12.5-.06,18.8.05a27.92,27.92,0,0,1,24,41.88L84.21,112.24c-5.31,9.52-17.14,13.39-27.49,12.12,8.79,8.91,24.73,8.74,33.69.16,3.6-3.09,5.53-7.47,7.91-11.45,8.8-15.22,17.54-30.37,26.34-45.59A40.77,40.77,0,0,0,129,38.93ZM89.7,41.31c4.09-.06,7.36,5,5.31,8.63-2.88,5.2-5.87,10.29-8.85,15.44-4.7-8-9.35-16-13.89-24,5.81-.12,11.62-.06,17.43-.06Z" transform="translate(-7.37 -7)"></path></svg>